<?xml version="1.0" encoding="utf-8" ?>
<svg xmlns="http://www.w3.org/2000/svg" xmlns:xlink="http://www.w3.org/1999/xlink" width="1023" height="1023">
	<path fill="#8F192A" transform="scale(5.115 5.115)" d="M23.5374 99.0204C24.9148 97.6674 61.4752 77.9625 62.8678 77.6141L63.8484 78.4957C67.457 82.5597 71.3288 86.388 75.109 90.2911L93.0834 108.87C96.3992 112.295 100.349 115.602 103.269 119.35C107.504 114.826 112.063 110.552 116.468 106.192C122.341 100.379 128.134 94.4899 134.082 88.7532C137.248 85.6999 140.24 81.9248 143.658 79.2152C143.986 78.8245 144.554 78.4712 144.963 78.1522C156.803 83.7329 167.675 91.5437 179.766 96.6203C178.336 99.6057 166.914 110.683 163.746 114.003Q147.454 131.225 130.99 148.282C122.277 157.385 113.888 166.959 104.827 175.713L103.537 177.064L101.441 174.959C96.1921 170.206 91.251 165.12 86.1582 160.201Q68.3136 143.005 50.6469 125.627L33.7621 109.194C30.3584 105.924 26.4574 102.717 23.5374 99.0204Z"/>
	<path fill="#F03F38" transform="scale(5.115 5.115)" d="M23.5374 99.0204C24.9148 97.6674 61.4752 77.9625 62.8678 77.6141L63.8484 78.4957C64.3535 83.325 70.0722 95.4096 72.1409 100.502C81.6886 124.004 91.4706 147.457 100.735 171.07C101.139 172.1 102.124 173.947 101.441 174.959C96.1921 170.206 91.251 165.12 86.1582 160.201Q68.3136 143.005 50.6469 125.627L33.7621 109.194C30.3584 105.924 26.4574 102.717 23.5374 99.0204Z"/>
	<path fill="#F03F38" transform="scale(5.115 5.115)" d="M144.963 78.1522C156.803 83.7329 167.675 91.5437 179.766 96.6203C178.336 99.6057 166.914 110.683 163.746 114.003Q147.454 131.225 130.99 148.282C122.277 157.385 113.888 166.959 104.827 175.713C104.818 175.673 104.813 175.632 104.801 175.593C104.638 175.06 104.584 174.734 104.765 174.181C107.23 166.675 110.885 159.342 113.899 152.018L135.74 99.6395C137.169 96.2141 143.632 81.9652 143.658 79.2152C143.986 78.8245 144.554 78.4712 144.963 78.1522Z"/>
	<path fill="#BF212F" transform="scale(5.115 5.115)" d="M63.8405 35.1178C68.487 37.0009 72.9599 39.9135 77.372 42.3236L102.598 56.1123C96.045 59.393 89.6804 63.1608 83.2179 66.6264C80.0166 68.3432 64.1663 76.3369 62.8678 77.6141C61.4752 77.9625 24.9148 97.6674 23.5374 99.0204L23.4306 98.5565C22.7696 94.1981 23.2584 89.0906 23.2596 84.6556L23.264 55.49L61.1207 36.3336C62.0155 35.8973 62.9005 35.4505 63.8405 35.1178Z"/>
	<path fill="#8F192A" transform="scale(5.115 5.115)" d="M23.264 55.49L61.1207 36.3336C60.8921 37.275 60.8931 38.2354 60.4928 39.121C57.7199 45.2557 52.2121 52.7936 48.5044 58.5737L30.7042 86.7934C28.7711 89.8027 24.3588 95.564 23.4306 98.5565C22.7696 94.1981 23.2584 89.0906 23.2596 84.6556L23.264 55.49Z"/>
	<path fill="#BF212F" transform="scale(5.115 5.115)" d="M103.664 55.8929C111.371 51.0369 118.868 45.7309 126.397 40.6001C129.203 38.688 134.647 34.385 137.59 33.3873C138.34 33.1332 138.858 33.5192 139.526 33.8221C146.772 37.1094 153.814 41.1827 160.851 44.9085C167.106 48.22 173.651 51.3162 179.697 54.9779C180.267 67.869 179.715 80.9114 179.813 93.8235L179.766 96.6203C167.675 91.5437 156.803 83.7329 144.963 78.1522C140.043 75.7531 135.241 72.9403 130.443 70.3025L113.476 61.1878C110.226 59.4406 107.019 57.4182 103.664 55.8929Z"/>
	<path fill="#8F192A" transform="scale(5.115 5.115)" d="M139.526 33.8221C146.772 37.1094 153.814 41.1827 160.851 44.9085C167.106 48.22 173.651 51.3162 179.697 54.9779C180.267 67.869 179.715 80.9114 179.813 93.8235C179.251 93.6732 178.432 93.5236 177.964 93.1738C176.436 92.0328 172.832 86.2162 171.494 84.2412Q160.289 67.3667 149.266 50.3723L142.703 40.5714C141.656 39.0165 140.255 37.2891 139.483 35.5905C139.198 34.9642 139.402 34.4672 139.526 33.8221Z"/>
</svg>
