<?xml version="1.0" encoding="utf-8"?>
<!-- Generator: Adobe Illustrator 27.5.0, SVG Export Plug-In . SVG Version: 6.00 Build 0)  -->
<svg version="1.1" xmlns="http://www.w3.org/2000/svg" xmlns:xlink="http://www.w3.org/1999/xlink" x="0px" y="0px"
	 viewBox="0 0 750 500" style="enable-background:new 0 0 750 500;" xml:space="preserve">
<g id="Shadows">
	<g>
		<ellipse style="fill:#263238;" cx="337.625" cy="388.037" rx="149.333" ry="10.611"/>
		<ellipse style="fill:#263238;" cx="107.599" cy="388.037" rx="53.115" ry="10.611"/>
		<ellipse style="fill:#263238;" cx="626.266" cy="388.037" rx="92.732" ry="10.611"/>
	</g>
</g>
<g id="Table">
	
		<line style="fill:none;stroke:#263238;stroke-width:2.5;stroke-linecap:round;stroke-linejoin:round;stroke-miterlimit:10;" x1="37.653" y1="354.569" x2="712.347" y2="354.569"/>
</g>
<g id="Monitor">
	<g>
		<path style="fill:#EC644E;" d="M525.753,324.999H149.501c-5.239,0-9.486-4.247-9.486-9.487V72.713
			c0-5.239,4.247-9.486,9.486-9.486h376.252c5.239,0,9.486,4.247,9.486,9.486v242.799
			C535.24,320.751,530.992,324.999,525.753,324.999z"/>
		<path style="fill:#263238;" d="M535.236,73.69v213.169H140.01V73.69c0-5.777,4.686-10.463,10.463-10.463h374.311
			C530.561,63.227,535.236,67.913,535.236,73.69z"/>
		<path style="fill:#FFFFFF;" d="M534.111,68.971H153.318c-3.87,0-7.001,3.131-7.001,6.99v247.788c0,0.132,0,0.265,0.022,0.397
			c-3.727-1.599-6.328-5.292-6.328-9.603V73.69c0-5.777,4.686-10.463,10.463-10.463h374.311
			C528.864,63.227,532.391,65.565,534.111,68.971z"/>
		<path style="fill:none;stroke:#263238;stroke-width:2.5;stroke-linecap:round;stroke-linejoin:round;stroke-miterlimit:10;" d="
			M525.753,324.999H149.501c-5.239,0-9.486-4.247-9.486-9.487V72.713c0-5.239,4.247-9.486,9.486-9.486h376.252
			c5.239,0,9.486,4.247,9.486,9.486v242.799C535.24,320.751,530.992,324.999,525.753,324.999z"/>
		<rect x="153.595" y="78.62" style="fill:#9ABAE3;" width="368.057" height="192.846"/>
		
			<line style="fill:none;stroke:#FFFFFF;stroke-width:2.5;stroke-linecap:round;stroke-linejoin:round;stroke-miterlimit:10;" x1="188.931" y1="235.547" x2="248.865" y2="175.612"/>
		<g>
			<g>
				<g>
					<g>
						<g>
							<path style="fill:#EC644E;" d="M170.732,96.953v25.915c0,0.799,0.648,1.447,1.447,1.447h34.197
								c0.799,0,1.447-0.648,1.447-1.447V99.058c0-0.799-0.648-1.447-1.447-1.447h-21.423c-0.647,0-1.215-0.43-1.392-1.052l0,0
								c-0.176-0.623-0.745-1.052-1.392-1.052h-9.99C171.38,95.507,170.732,96.155,170.732,96.953z"/>
						</g>
					</g>
				</g>
				<g>
					<g>
						<g>
							
								<path style="fill:none;stroke:#263238;stroke-width:2.5;stroke-linecap:round;stroke-linejoin:round;stroke-miterlimit:10;" d="
								M170.732,96.953v25.915c0,0.799,0.648,1.447,1.447,1.447h34.197c0.799,0,1.447-0.648,1.447-1.447V99.058
								c0-0.799-0.648-1.447-1.447-1.447h-21.423c-0.647,0-1.215-0.43-1.392-1.052l0,0c-0.176-0.623-0.745-1.052-1.392-1.052h-9.99
								C171.38,95.507,170.732,96.155,170.732,96.953z"/>
						</g>
					</g>
				</g>
				<path style="fill:#FFFFFF;" d="M181.017,98.682h-7.417c-0.25,0-0.452-0.297-0.452-0.663l0,0c0-0.366,0.202-0.663,0.452-0.663
					h7.417c0.25,0,0.452,0.297,0.452,0.663l0,0C181.469,98.385,181.267,98.682,181.017,98.682z"/>
			</g>
			<g>
				<g>
					<g>
						<g>
							<path style="fill:#EC644E;" d="M209.648,102.569l-0.798,20.357c-0.031,0.776-0.669,1.39-1.446,1.39h-34.744
								c-0.821,0-1.478-0.683-1.446-1.503l0.799-20.357c0.031-0.776,0.669-1.39,1.446-1.39h34.743
								C209.024,101.065,209.681,101.748,209.648,102.569z"/>
						</g>
					</g>
				</g>
				<g>
					<g>
						<g>
							
								<path style="fill:none;stroke:#263238;stroke-width:2.5;stroke-linecap:round;stroke-linejoin:round;stroke-miterlimit:10;" d="
								M209.648,102.569l-0.798,20.357c-0.031,0.776-0.669,1.39-1.446,1.39h-34.744c-0.821,0-1.478-0.683-1.446-1.503l0.799-20.357
								c0.031-0.776,0.669-1.39,1.446-1.39h34.743C209.024,101.065,209.681,101.748,209.648,102.569z"/>
						</g>
					</g>
				</g>
			</g>
		</g>
		<g>
			<g>
				<g>
					<g>
						<g>
							<path style="fill:#EC644E;" d="M170.732,139.478v25.915c0,0.799,0.648,1.447,1.447,1.447h34.197
								c0.799,0,1.447-0.648,1.447-1.447v-23.811c0-0.799-0.648-1.447-1.447-1.447h-21.423c-0.647,0-1.215-0.43-1.392-1.052l0,0
								c-0.176-0.623-0.745-1.052-1.392-1.052h-9.99C171.38,138.031,170.732,138.679,170.732,139.478z"/>
						</g>
					</g>
				</g>
				<g>
					<g>
						<g>
							
								<path style="fill:none;stroke:#263238;stroke-width:2.5;stroke-linecap:round;stroke-linejoin:round;stroke-miterlimit:10;" d="
								M170.732,139.478v25.915c0,0.799,0.648,1.447,1.447,1.447h34.197c0.799,0,1.447-0.648,1.447-1.447v-23.811
								c0-0.799-0.648-1.447-1.447-1.447h-21.423c-0.647,0-1.215-0.43-1.392-1.052l0,0c-0.176-0.623-0.745-1.052-1.392-1.052h-9.99
								C171.38,138.031,170.732,138.679,170.732,139.478z"/>
						</g>
					</g>
				</g>
				<path style="fill:#FFFFFF;" d="M181.017,141.206h-7.417c-0.25,0-0.452-0.297-0.452-0.663l0,0c0-0.366,0.202-0.663,0.452-0.663
					h7.417c0.25,0,0.452,0.297,0.452,0.663l0,0C181.469,140.91,181.267,141.206,181.017,141.206z"/>
			</g>
			<g>
				<g>
					<g>
						<g>
							<path style="fill:#EC644E;" d="M209.648,145.093l-0.798,20.357c-0.031,0.776-0.669,1.39-1.446,1.39h-34.744
								c-0.821,0-1.478-0.683-1.446-1.503l0.799-20.357c0.031-0.776,0.669-1.39,1.446-1.39h34.743
								C209.024,143.589,209.681,144.272,209.648,145.093z"/>
						</g>
					</g>
				</g>
				<g>
					<g>
						<g>
							
								<path style="fill:none;stroke:#263238;stroke-width:2.5;stroke-linecap:round;stroke-linejoin:round;stroke-miterlimit:10;" d="
								M209.648,145.093l-0.798,20.357c-0.031,0.776-0.669,1.39-1.446,1.39h-34.744c-0.821,0-1.478-0.683-1.446-1.503l0.799-20.357
								c0.031-0.776,0.669-1.39,1.446-1.39h34.743C209.024,143.589,209.681,144.272,209.648,145.093z"/>
						</g>
					</g>
				</g>
			</g>
		</g>
		
			<line style="fill:none;stroke:#FFFFFF;stroke-width:2.5;stroke-linecap:round;stroke-linejoin:round;stroke-miterlimit:10;" x1="430.241" y1="236.443" x2="479.198" y2="187.486"/>
		
			<line style="fill:none;stroke:#FFFFFF;stroke-width:2.5;stroke-linecap:round;stroke-linejoin:round;stroke-miterlimit:10;" x1="409.809" y1="182.537" x2="441.202" y2="151.143"/>
		
			<line style="fill:none;stroke:#FFFFFF;stroke-width:2.5;stroke-linecap:round;stroke-linejoin:round;stroke-miterlimit:10;" x1="205.403" y1="197.933" x2="300.48" y2="102.857"/>
		
			<line style="fill:none;stroke:#FFFFFF;stroke-width:2.5;stroke-linecap:round;stroke-linejoin:round;stroke-miterlimit:10;" x1="398.918" y1="251" x2="493.995" y2="155.923"/>
		<g>
			
				<polygon style="fill:#EC644E;stroke:#263238;stroke-width:2.5;stroke-linecap:round;stroke-linejoin:round;stroke-miterlimit:10;" points="
				390.576,373.385 296.948,373.385 301.358,324.999 386.165,324.999 			"/>
			<polygon style="opacity:0.5;fill:#263238;" points="387.181,333.605 300.105,336.406 301.362,324.995 386.166,324.995 			"/>
		</g>
		
			<path style="fill:#EC644E;stroke:#263238;stroke-width:2.5;stroke-linecap:round;stroke-linejoin:round;stroke-miterlimit:10;" d="
			M423.611,387.317H263.913v-1.83c0-6.684,5.418-12.102,12.102-12.102h135.493c6.684,0,12.102,5.418,12.102,12.102V387.317z"/>
		<g>
			<g>
				<rect x="483.184" y="229.143" style="fill:#FFFFFF;" width="24.902" height="4.612"/>
				<path style="fill:#FFFFFF;" d="M508.087,235.005h-24.902c-0.691,0-1.25-0.56-1.25-1.25v-4.612c0-0.69,0.559-1.25,1.25-1.25
					h24.902c0.69,0,1.25,0.56,1.25,1.25v4.612C509.337,234.446,508.777,235.005,508.087,235.005z M484.435,232.505h22.402v-2.112
					h-22.402V232.505z"/>
			</g>
			<g>
				<rect x="485.044" y="253.71" style="fill:#FFFFFF;" width="21.183" height="4.612"/>
				<path style="fill:#FFFFFF;" d="M506.227,259.572h-21.183c-0.69,0-1.25-0.56-1.25-1.25v-4.612c0-0.691,0.56-1.25,1.25-1.25
					h21.183c0.69,0,1.25,0.559,1.25,1.25v4.612C507.477,259.013,506.917,259.572,506.227,259.572z M486.294,257.072h18.683v-2.112
					h-18.683V257.072z"/>
			</g>
			<path style="fill:#FFFFFF;" d="M485.042,254.96c-0.638,0-1.183-0.486-1.242-1.134l-1.859-19.955
				c-0.064-0.688,0.44-1.297,1.128-1.361c0.698-0.061,1.297,0.441,1.36,1.129l1.859,19.955c0.064,0.688-0.44,1.297-1.128,1.36
				C485.12,254.958,485.081,254.96,485.042,254.96z"/>
			<path style="fill:#FFFFFF;" d="M506.228,254.96c-0.039,0-0.078-0.002-0.118-0.006c-0.688-0.064-1.192-0.673-1.128-1.36
				l1.86-19.955c0.063-0.688,0.668-1.191,1.36-1.129c0.688,0.064,1.192,0.673,1.128,1.361l-1.86,19.955
				C507.411,254.474,506.866,254.96,506.228,254.96z"/>
			<g>
				<path style="fill:#FFFFFF;" d="M484.182,239.321c-0.192,0-0.384-0.073-0.53-0.22c-0.293-0.293-0.293-0.768,0-1.061l4.257-4.256
					c0.293-0.294,0.768-0.292,1.061,0c0.293,0.293,0.293,0.768,0,1.061l-4.257,4.256
					C484.565,239.248,484.373,239.321,484.182,239.321z"/>
				<path style="fill:#FFFFFF;" d="M485.167,244.132c-0.192,0-0.384-0.073-0.53-0.22c-0.293-0.293-0.293-0.768,0-1.061l9.067-9.067
					c0.293-0.293,0.768-0.293,1.06,0c0.293,0.293,0.293,0.768,0,1.061l-9.067,9.067
					C485.551,244.059,485.359,244.132,485.167,244.132z"/>
				<path style="fill:#FFFFFF;" d="M485.649,249.446c-0.192,0-0.384-0.073-0.53-0.22c-0.293-0.293-0.293-0.768,0-1.061
					l14.381-14.381c0.293-0.293,0.768-0.293,1.06,0c0.293,0.293,0.293,0.768,0,1.061l-14.381,14.381
					C486.033,249.373,485.842,249.446,485.649,249.446z"/>
				<path style="fill:#FFFFFF;" d="M487.161,253.73c-0.192,0-0.384-0.073-0.53-0.22c-0.293-0.293-0.293-0.768,0-1.061l18.665-18.665
					c0.293-0.293,0.768-0.293,1.06,0c0.293,0.293,0.293,0.768,0,1.061l-18.665,18.665
					C487.545,253.657,487.353,253.73,487.161,253.73z"/>
				<path style="fill:#FFFFFF;" d="M492.84,253.848c-0.192,0-0.384-0.073-0.53-0.22c-0.293-0.293-0.293-0.768,0-1.061l14.249-14.249
					c0.293-0.293,0.768-0.293,1.06,0c0.293,0.293,0.293,0.768,0,1.061l-14.249,14.249
					C493.224,253.774,493.032,253.848,492.84,253.848z"/>
				<path style="fill:#FFFFFF;" d="M498.672,253.811c-0.192,0-0.384-0.073-0.53-0.22c-0.293-0.293-0.293-0.768,0-1.061l8.315-8.315
					c0.293-0.293,0.768-0.293,1.061,0c0.293,0.293,0.293,0.768,0,1.061l-8.315,8.315
					C499.056,253.738,498.864,253.811,498.672,253.811z"/>
				<path style="fill:#FFFFFF;" d="M504.39,253.89c-0.192,0-0.384-0.073-0.53-0.22c-0.293-0.293-0.293-0.768,0-1.061l2.056-2.056
					c0.293-0.293,0.768-0.293,1.061,0s0.293,0.768,0,1.061l-2.056,2.056C504.773,253.816,504.582,253.89,504.39,253.89z"/>
				<path style="fill:#FFFFFF;" d="M507.089,239.321c-0.192,0-0.384-0.073-0.53-0.22l-4.257-4.256c-0.293-0.293-0.293-0.768,0-1.061
					c0.293-0.293,0.768-0.293,1.061,0l4.257,4.256c0.293,0.293,0.293,0.768,0,1.061
					C507.473,239.248,507.281,239.321,507.089,239.321z"/>
				<path style="fill:#FFFFFF;" d="M506.103,244.132c-0.192,0-0.384-0.073-0.53-0.22l-9.067-9.067c-0.293-0.293-0.293-0.768,0-1.061
					c0.293-0.293,0.767-0.293,1.06,0l9.067,9.067c0.293,0.293,0.293,0.768,0,1.061C506.487,244.059,506.296,244.132,506.103,244.132
					z"/>
				<path style="fill:#FFFFFF;" d="M505.622,249.446c-0.192,0-0.384-0.073-0.53-0.22l-14.382-14.381
					c-0.293-0.293-0.293-0.768,0-1.061c0.293-0.293,0.767-0.293,1.06,0l14.382,14.381c0.293,0.293,0.293,0.768,0,1.061
					C506.006,249.373,505.814,249.446,505.622,249.446z"/>
				<path style="fill:#FFFFFF;" d="M504.109,253.73c-0.192,0-0.384-0.073-0.53-0.22l-18.665-18.665
					c-0.293-0.293-0.293-0.768,0-1.061c0.293-0.293,0.767-0.293,1.06,0l18.665,18.665c0.293,0.293,0.293,0.768,0,1.061
					C504.493,253.657,504.302,253.73,504.109,253.73z"/>
				<path style="fill:#FFFFFF;" d="M498.431,253.848c-0.192,0-0.384-0.073-0.53-0.22l-14.249-14.249
					c-0.293-0.293-0.293-0.768,0-1.061c0.293-0.293,0.767-0.293,1.06,0l14.249,14.249c0.293,0.293,0.293,0.768,0,1.061
					C498.814,253.774,498.623,253.848,498.431,253.848z"/>
				<path style="fill:#FFFFFF;" d="M492.599,253.811c-0.192,0-0.384-0.073-0.53-0.22l-8.315-8.315c-0.293-0.293-0.293-0.768,0-1.061
					c0.293-0.293,0.768-0.293,1.061,0l8.315,8.315c0.293,0.293,0.293,0.768,0,1.061
					C492.982,253.738,492.791,253.811,492.599,253.811z"/>
				<path style="fill:#FFFFFF;" d="M486.881,253.89c-0.192,0-0.384-0.073-0.53-0.22l-2.056-2.056c-0.293-0.293-0.293-0.768,0-1.061
					c0.293-0.293,0.768-0.293,1.061,0l2.056,2.056c0.293,0.293,0.293,0.768,0,1.061C487.265,253.816,487.073,253.89,486.881,253.89z
					"/>
			</g>
		</g>
		
			<polygon style="fill:#FFFFFF;stroke:#263238;stroke-width:2.5;stroke-linecap:round;stroke-linejoin:round;stroke-miterlimit:10;" points="
			190.705,177.979 190.705,157.815 206.088,170.638 199.665,171.476 203.445,178.43 199.106,180.588 195.377,173.482 		"/>
	</g>
</g>
<g id="Cpu">
	<g>
		<path style="fill:#EC644E;" d="M691.371,387.317H561.161c-4.135,0-7.487-3.352-7.487-7.487V70.837
			c0-4.135,3.352-7.487,7.487-7.487h130.211c4.135,0,7.487,3.352,7.487,7.487V379.83
			C698.858,383.965,695.506,387.317,691.371,387.317z"/>
		<path style="fill:#FFFFFF;" d="M698.415,68.962H564.416c-2.635,0-4.774,2.128-4.774,4.763v313.262
			c-3.44-0.981-5.965-4.156-5.965-7.927V71.607c0-4.564,3.693-8.258,8.247-8.258h128.684
			C694.236,63.35,697.323,65.698,698.415,68.962z"/>
		<path style="fill:none;stroke:#263238;stroke-width:2.5;stroke-linecap:round;stroke-linejoin:round;stroke-miterlimit:10;" d="
			M691.371,387.317H561.161c-4.135,0-7.487-3.352-7.487-7.487V70.837c0-4.135,3.352-7.487,7.487-7.487h130.211
			c4.135,0,7.487,3.352,7.487,7.487V379.83C698.858,383.965,695.506,387.317,691.371,387.317z"/>
		<g>
			<circle style="fill:#FFFFFF;" cx="626.266" cy="140.585" r="11.732"/>
			
				<ellipse transform="matrix(0.1974 -0.9803 0.9803 0.1974 364.8129 726.7723)" style="fill:#263238;" cx="626.266" cy="140.585" rx="9.018" ry="9.018"/>
			<circle style="fill:#9ABAE3;" cx="626.266" cy="140.585" r="6.477"/>
		</g>
		<g style="opacity:0.2;">
			
				<line style="fill:none;stroke:#263238;stroke-width:2.5;stroke-linecap:round;stroke-linejoin:round;stroke-miterlimit:10;" x1="553.674" y1="191.666" x2="698.858" y2="336.85"/>
			
				<line style="fill:none;stroke:#263238;stroke-width:2.5;stroke-linecap:round;stroke-linejoin:round;stroke-miterlimit:10;" x1="553.674" y1="204.314" x2="698.858" y2="349.499"/>
			
				<line style="fill:none;stroke:#263238;stroke-width:2.5;stroke-linecap:round;stroke-linejoin:round;stroke-miterlimit:10;" x1="553.674" y1="216.963" x2="698.858" y2="362.148"/>
			
				<line style="fill:none;stroke:#263238;stroke-width:2.5;stroke-linecap:round;stroke-linejoin:round;stroke-miterlimit:10;" x1="608.852" y1="272.142" x2="553.674" y2="327.32"/>
			
				<line style="fill:none;stroke:#263238;stroke-width:2.5;stroke-linecap:round;stroke-linejoin:round;stroke-miterlimit:10;" x1="614.78" y1="278.711" x2="553.674" y2="339.816"/>
			
				<line style="fill:none;stroke:#263238;stroke-width:2.5;stroke-linecap:round;stroke-linejoin:round;stroke-miterlimit:10;" x1="620.951" y1="285.004" x2="553.674" y2="352.282"/>
		</g>
		<g>
			<path style="fill:#263238;" d="M583.389,377.426h-12.503c-1.07,0-1.937-0.867-1.937-1.937v-1.748c0-1.07,0.867-1.937,1.937-1.937
				h12.503c1.07,0,1.937,0.867,1.937,1.937v1.748C585.326,376.559,584.459,377.426,583.389,377.426z"/>
			<path style="fill:#263238;" d="M607.953,377.426h-12.503c-1.07,0-1.937-0.867-1.937-1.937v-1.748c0-1.07,0.867-1.937,1.937-1.937
				h12.503c1.07,0,1.937,0.867,1.937,1.937v1.748C609.89,376.559,609.023,377.426,607.953,377.426z"/>
			<path style="fill:#263238;" d="M632.517,377.426h-12.503c-1.07,0-1.937-0.867-1.937-1.937v-1.748c0-1.07,0.867-1.937,1.937-1.937
				h12.503c1.07,0,1.937,0.867,1.937,1.937v1.748C634.454,376.559,633.587,377.426,632.517,377.426z"/>
			<path style="fill:#263238;" d="M681.646,377.426h-12.503c-1.07,0-1.937-0.867-1.937-1.937v-1.748c0-1.07,0.867-1.937,1.937-1.937
				h12.503c1.07,0,1.937,0.867,1.937,1.937v1.748C683.582,376.559,682.715,377.426,681.646,377.426z"/>
		</g>
		
			<line style="fill:none;stroke:#263238;stroke-width:2.5;stroke-linecap:round;stroke-linejoin:round;stroke-miterlimit:10;" x1="553.674" y1="111.438" x2="698.858" y2="111.438"/>
		
			<line style="fill:none;stroke:#263238;stroke-width:2.5;stroke-linecap:round;stroke-linejoin:round;stroke-miterlimit:10;" x1="553.674" y1="169.732" x2="698.858" y2="169.732"/>
		
			<line style="fill:none;stroke:#263238;stroke-width:2.5;stroke-linecap:round;stroke-linejoin:round;stroke-miterlimit:10;" x1="553.674" y1="182.136" x2="698.858" y2="182.136"/>
		
			<line style="fill:none;stroke:#263238;stroke-width:2.5;stroke-linecap:round;stroke-linejoin:round;stroke-miterlimit:10;" x1="568.828" y1="175.781" x2="683.704" y2="175.781"/>
		
			<path style="fill:#9ABAE3;stroke:#263238;stroke-width:2.5;stroke-linecap:round;stroke-linejoin:round;stroke-miterlimit:10;" d="
			M681.711,203.461h-9.993c-1.101,0-1.993-0.892-1.993-1.993v-1.88c0-1.101,0.892-1.993,1.993-1.993h9.993
			c1.101,0,1.993,0.892,1.993,1.993v1.88C683.704,202.569,682.812,203.461,681.711,203.461z"/>
	</g>
</g>
<g id="Keyboard">
	<g>
		<g>
			
				<path style="fill:#EC644E;stroke:#263238;stroke-width:2.5;stroke-linecap:round;stroke-linejoin:round;stroke-miterlimit:10;" d="
				M167.59,409.095c113.084,0,226.169,0,339.253,0l21.558,53.657c-125.508,0-251.231,0-376.739,0L167.59,409.095z"/>
		</g>
		<g style="opacity:0.6;">
			<g>
				<path style="fill:#FFFFFF;" d="M170.327,425.871c10.671,0,21.342,0,32.013,0c-0.572,1.749-1.146,3.497-1.721,5.246
					c-10.642,0-21.284,0-31.926,0C169.239,429.368,169.783,427.62,170.327,425.871z"/>
				<path style="fill:#FFFFFF;" d="M205.199,425.871c6.792,0,13.584,0,20.376,0c-0.323,1.749-0.646,3.497-0.97,5.246
					c-7.04,0-14.08,0-21.12,0C204.057,429.368,204.628,427.62,205.199,425.871z"/>
				<path style="fill:#FFFFFF;" d="M228.392,425.871c7.119,0,14.238,0,21.356,0c-0.208,1.749-0.416,3.497-0.625,5.246
					c-7.245,0-14.49,0-21.734,0C227.723,429.368,228.058,427.62,228.392,425.871z"/>
				<path style="fill:#FFFFFF;" d="M252.524,425.871c6.996,0,13.993,0,20.989,0c-0.094,1.749-0.188,3.497-0.282,5.246
					c-7.095,0-14.189,0-21.284,0C252.14,429.368,252.332,427.62,252.524,425.871z"/>
				<path style="fill:#FFFFFF;" d="M296.951,425.871c0.074,1.749,0.149,3.497,0.224,5.246c-7.054,0-14.107,0-21.161,0
					c0.092-1.749,0.183-3.498,0.275-5.246C283.177,425.871,290.064,425.871,296.951,425.871z"/>
				<path style="fill:#FFFFFF;" d="M321.043,425.871c0.094,1.749,0.188,3.497,0.282,5.246c-7.108,0-14.217,0-21.325,0
					c-0.077-1.749-0.154-3.498-0.231-5.246C306.86,425.871,313.952,425.871,321.043,425.871z"/>
				<path style="fill:#FFFFFF;" d="M344.563,425.871c0.112,1.749,0.225,3.497,0.338,5.246c-6.931,0-13.862,0-20.793,0
					c-0.096-1.749-0.193-3.498-0.289-5.246C330.734,425.871,337.649,425.871,344.563,425.871z"/>
				<path style="fill:#FFFFFF;" d="M368.696,425.871c0.281,1.749,0.564,3.497,0.846,5.246c-7.286,0-14.572,0-21.857,0
					c-0.115-1.749-0.23-3.498-0.345-5.246C354.458,425.871,361.577,425.871,368.696,425.871z"/>
				<path style="fill:#FFFFFF;" d="M392.828,425.871c0.287,1.749,0.575,3.497,0.863,5.246c-7.109,0-14.217,0-21.325,0
					c-0.285-1.749-0.569-3.498-0.853-5.246C378.618,425.871,385.723,425.871,392.828,425.871z"/>
				<path style="fill:#FFFFFF;" d="M417.328,425.871c0.307,1.749,0.614,3.497,0.922,5.246c-7.245,0-14.49,0-21.734,0
					c-0.29-1.749-0.58-3.498-0.87-5.246C402.873,425.871,410.101,425.871,417.328,425.871z"/>
				<path style="fill:#FFFFFF;" d="M440.277,425.871c0.325,1.749,0.65,3.497,0.977,5.246c-6.726,0-13.453,0-20.179,0
					c-0.31-1.749-0.62-3.498-0.928-5.246C426.856,425.871,433.566,425.871,440.277,425.871z"/>
				<path style="fill:#FFFFFF;" d="M465.349,425.871c0.345,1.749,0.69,3.497,1.036,5.246c-7.436,0-14.872,0-22.308,0
					c-0.342-1.749-0.683-3.498-1.024-5.246C450.485,425.871,457.917,425.871,465.349,425.871z"/>
				<path style="fill:#FFFFFF;" d="M489.358,425.871c0.378,1.749,0.756,3.497,1.135,5.246c-7.095,0-14.189,0-21.284,0
					c-0.362-1.749-0.723-3.498-1.084-5.246C475.203,425.871,482.281,425.871,489.358,425.871z"/>
				<path style="fill:#FFFFFF;" d="M508.626,431.117c-5.116,0-10.233,0-15.349,0c-0.367-1.749-0.734-3.498-1.1-5.246
					c4.75,0,9.5,0,14.25,0C507.158,427.62,507.891,429.368,508.626,431.117z"/>
			</g>
			<g>
				<path style="fill:#FFFFFF;" d="M163.314,448.281c6.999,0,13.998,0,20.997,0c-0.775,2.807-1.551,5.613-2.33,8.42
					c-7.108,0-14.216,0-21.325,0C161.544,453.895,162.43,451.088,163.314,448.281z"/>
				<path style="fill:#FFFFFF;" d="M187.198,448.281c7.026,0,14.053,0,21.079,0c-0.552,2.807-1.105,5.613-1.66,8.42
					c-7.26,0-14.52,0-21.78,0C185.626,453.895,186.413,451.088,187.198,448.281z"/>
				<path style="fill:#FFFFFF;" d="M211.123,448.281c7.398,0,14.795,0,22.193,0c-0.52,2.807-1.042,5.613-1.565,8.42
					c-7.439,0-14.879,0-22.318,0c0.563-2.774,1.124-5.549,1.685-8.323C211.12,448.346,211.121,448.314,211.123,448.281z"/>
				<path style="fill:#FFFFFF;" d="M236.162,448.281c9.213,0,18.425,0,27.638,0c-0.303,2.807-0.606,5.613-0.91,8.42
					c-9.441,0-18.882,0-28.322,0c0.532-2.774,1.062-5.549,1.591-8.323C236.159,448.346,236.161,448.314,236.162,448.281z"/>
				<path style="fill:#FFFFFF;" d="M386.522,448.378c0.457,2.774,0.915,5.549,1.375,8.323c-40.717,0-81.434,0-122.151,0
					c0.301-2.807,0.601-5.613,0.9-8.42c39.958,0,79.916,0,119.873,0C386.521,448.314,386.521,448.346,386.522,448.378z"/>
				<path style="fill:#FFFFFF;" d="M418.864,448.378c0.497,2.774,0.996,5.549,1.497,8.323c-9.869,0-19.737,0-29.606,0
					c-0.464-2.807-0.927-5.613-1.388-8.42c9.831,0,19.663,0,29.494,0C418.861,448.314,418.862,448.346,418.864,448.378z"/>
				<path style="fill:#FFFFFF;" d="M443.615,448.378c0.528,2.774,1.058,5.549,1.59,8.323c-7.329,0-14.658,0-21.987,0
					c-0.505-2.807-1.009-5.613-1.511-8.42c7.301,0,14.603,0,21.904,0C443.612,448.314,443.613,448.346,443.615,448.378z"/>
				<path style="fill:#FFFFFF;" d="M469.48,448.378c0.561,2.774,1.123,5.549,1.687,8.323c-7.702,0-15.403,0-23.105,0
					c-0.536-2.807-1.071-5.613-1.605-8.42c7.673,0,15.345,0,23.018,0C469.476,448.314,469.478,448.346,469.48,448.378z"/>
				<path style="fill:#FFFFFF;" d="M494.438,448.378c0.592,2.774,1.185,5.549,1.78,8.323c-7.398,0-14.796,0-22.195,0
					c-0.583-2.807-1.164-5.613-1.744-8.42c7.384,0,14.768,0,22.151,0C494.433,448.314,494.435,448.346,494.438,448.378z"/>
				<path style="fill:#FFFFFF;" d="M519.406,456.701c-6.777,0-13.554,0-20.331,0c-0.614-2.807-1.227-5.613-1.839-8.42
					c6.201,0,12.402,0,18.604,0C517.025,451.088,518.213,453.895,519.406,456.701z"/>
			</g>
			<g>
				<path style="fill:#FFFFFF;" d="M165.793,440.379c16.907,0,33.814,0,50.722,0c-0.419,2.105-0.839,4.21-1.26,6.315
					c-17.148,0-34.296,0-51.443,0C164.474,444.589,165.134,442.484,165.793,440.379z"/>
				<path style="fill:#FFFFFF;" d="M242.122,440.379c-0.381,2.105-0.762,4.21-1.145,6.315c-7.64,0-15.279,0-22.919,0
					c0.418-2.105,0.835-4.21,1.252-6.315C226.914,440.379,234.518,440.379,242.122,440.379z"/>
				<path style="fill:#FFFFFF;" d="M265.058,440.379c-0.222,2.105-0.445,4.21-0.668,6.315c-6.87,0-13.74,0-20.611,0
					c0.394-2.105,0.787-4.21,1.179-6.315C251.658,440.379,258.358,440.379,265.058,440.379z"/>
				<path style="fill:#FFFFFF;" d="M288.898,440.379c-0.09,2.105-0.18,4.21-0.27,6.315c-7.131,0-14.262,0-21.393,0
					c0.22-2.105,0.44-4.21,0.66-6.315C274.896,440.379,281.897,440.379,288.898,440.379z"/>
				<path style="fill:#FFFFFF;" d="M314.185,446.694c-7.584,0-15.169,0-22.754,0c0.087-2.105,0.174-4.21,0.262-6.315
					c7.385,0,14.77,0,22.155,0C313.96,442.484,314.072,444.589,314.185,446.694z"/>
				<path style="fill:#FFFFFF;" d="M338.794,446.694c-7.269,0-14.537,0-21.806,0c-0.115-2.105-0.23-4.21-0.345-6.315
					c7.248,0,14.496,0,21.744,0C338.522,442.484,338.658,444.589,338.794,446.694z"/>
				<path style="fill:#FFFFFF;" d="M363.361,446.694c-7.255,0-14.51,0-21.764,0c-0.139-2.105-0.277-4.21-0.416-6.315
					c7.234,0,14.469,0,21.703,0C363.043,442.484,363.202,444.589,363.361,446.694z"/>
				<path style="fill:#FFFFFF;" d="M388.383,446.694c-7.406,0-14.812,0-22.218,0c-0.162-2.105-0.324-4.21-0.486-6.315
					c7.221,0,14.441,0,21.662,0C387.687,442.484,388.034,444.589,388.383,446.694z"/>
				<path style="fill:#FFFFFF;" d="M412.992,446.694c-7.255,0-14.51,0-21.765,0c-0.351-2.105-0.701-4.21-1.05-6.315
					c7.234,0,14.468,0,21.702,0C412.249,442.484,412.62,444.589,412.992,446.694z"/>
				<path style="fill:#FFFFFF;" d="M436.941,446.694c-7.049,0-14.097,0-21.146,0c-0.374-2.105-0.748-4.21-1.121-6.315
					c7.029,0,14.057,0,21.086,0c0.001,0.032,0.003,0.065,0.004,0.097C436.156,442.549,436.548,444.622,436.941,446.694z"/>
				<path style="fill:#FFFFFF;" d="M461.137,446.694c-7.117,0-14.235,0-21.352,0c-0.397-2.105-0.793-4.21-1.189-6.315
					c7.097,0,14.194,0,21.292,0C460.304,442.484,460.72,444.589,461.137,446.694z"/>
				<path style="fill:#FFFFFF;" d="M490.61,446.694c-8.876,0-17.752,0-26.628,0c-0.42-2.105-0.839-4.21-1.258-6.315
					c8.851,0,17.702,0,26.553,0C489.72,442.484,490.165,444.589,490.61,446.694z"/>
				<path style="fill:#FFFFFF;" d="M515.137,446.694c-7.241,0-14.482,0-21.723,0c-0.448-2.105-0.895-4.21-1.341-6.315
					c6.809,0,13.619,0,20.428,0C513.377,442.484,514.256,444.589,515.137,446.694z"/>
			</g>
			<g>
				<path style="fill:#FFFFFF;" d="M168.26,432.478c12.792,0,25.584,0,38.376,0c-0.674,2.105-1.349,4.21-2.026,6.315
					c-12.774,0-25.548,0-38.322,0C166.947,436.687,167.604,434.582,168.26,432.478z"/>
				<path style="fill:#FFFFFF;" d="M209.503,432.478c7.099,0,14.198,0,21.297,0c-0.405,2.105-0.81,4.21-1.217,6.315
					c-7.366,0-14.732,0-22.098,0C208.159,436.687,208.832,434.582,209.503,432.478z"/>
				<path style="fill:#FFFFFF;" d="M233.626,432.478c7.277,0,14.553,0,21.83,0c-0.245,2.105-0.49,4.21-0.735,6.315
					c-7.434,0-14.869,0-22.303,0C232.821,436.687,233.224,434.582,233.626,432.478z"/>
				<path style="fill:#FFFFFF;" d="M258.241,432.478c7.167,0,14.335,0,21.502,0c-0.098,2.105-0.197,4.21-0.296,6.315
					c-7.297,0-14.595,0-21.892,0C257.784,436.687,258.012,434.582,258.241,432.478z"/>
				<path style="fill:#FFFFFF;" d="M302.883,432.478c0.101,2.105,0.203,4.21,0.304,6.315c-6.983,0-13.965,0-20.948,0
					c0.096-2.105,0.192-4.21,0.288-6.315C289.313,432.478,296.098,432.478,302.883,432.478z"/>
				<path style="fill:#FFFFFF;" d="M327.375,432.478c0.124,2.105,0.249,4.21,0.375,6.315c-7.256,0-14.513,0-21.769,0
					c-0.091-2.105-0.181-4.21-0.271-6.315C312.931,432.478,320.153,432.478,327.375,432.478z"/>
				<path style="fill:#FFFFFF;" d="M350.925,432.478c0.147,2.105,0.294,4.21,0.442,6.315c-6.941,0-13.883,0-20.824,0
					c-0.114-2.105-0.228-4.21-0.342-6.315C337.109,432.478,344.017,432.478,350.925,432.478z"/>
				<path style="fill:#FFFFFF;" d="M375.786,432.478c0.348,2.105,0.697,4.21,1.047,6.315c-7.544,0-15.088,0-22.632,0
					c-0.15-2.105-0.301-4.21-0.45-6.315C361.096,432.478,368.441,432.478,375.786,432.478z"/>
				<path style="fill:#FFFFFF;" d="M399.54,432.478c0.357,2.105,0.715,4.21,1.075,6.315c-6.983,0-13.965,0-20.948,0
					c-0.353-2.105-0.704-4.21-1.055-6.315C385.588,432.478,392.564,432.478,399.54,432.478z"/>
				<path style="fill:#FFFFFF;" d="M424.36,432.478c0.381,2.105,0.763,4.21,1.145,6.315c-7.366,0-14.732,0-22.098,0
					c-0.362-2.105-0.722-4.21-1.082-6.315C409.67,432.478,417.015,432.478,424.36,432.478z"/>
				<path style="fill:#FFFFFF;" d="M448.155,432.478c0.404,2.105,0.809,4.21,1.214,6.315c-7.01,0-14.02,0-21.03,0
					c-0.385-2.105-0.77-4.21-1.154-6.315C434.175,432.478,441.165,432.478,448.155,432.478z"/>
				<path style="fill:#FFFFFF;" d="M471.91,432.478c0.44,2.105,0.881,4.21,1.322,6.315c-7.023,0-14.047,0-21.07,0
					c-0.408-2.105-0.815-4.21-1.222-6.315C457.931,432.478,464.921,432.478,471.91,432.478z"/>
				<path style="fill:#FFFFFF;" d="M511.843,438.792c-11.939,0-23.878,0-35.817,0c-0.431-2.105-0.861-4.21-1.29-6.315
					c11.482,0,22.963,0,34.444,0C510.066,434.582,510.953,436.687,511.843,438.792z"/>
			</g>
			<g>
				<path style="fill:#FFFFFF;" d="M172.344,419.264c6.473,0,12.946,0,19.419,0c-0.58,1.749-1.161,3.497-1.743,5.246
					c-6.434,0-12.868,0-19.302,0C171.261,422.762,171.803,421.013,172.344,419.264z"/>
				<path style="fill:#FFFFFF;" d="M194.572,419.264c7.179,0,14.357,0,21.536,0c-0.357,1.749-0.714,3.497-1.072,5.246
					c-7.4,0-14.8,0-22.2,0C193.415,422.762,193.994,421.013,194.572,419.264z"/>
				<path style="fill:#FFFFFF;" d="M218.917,419.264c6.894,0,13.787,0,20.681,0c-0.203,1.749-0.405,3.497-0.608,5.246
					c-7.046,0-14.092,0-21.138,0C218.207,422.762,218.562,421.013,218.917,419.264z"/>
				<path style="fill:#FFFFFF;" d="M242.407,419.264c6.921,0,13.842,0,20.762,0c-0.089,1.749-0.178,3.497-0.266,5.246
					c-7.033,0-14.065,0-21.097,0C242.006,422.762,242.207,421.013,242.407,419.264z"/>
				<path style="fill:#FFFFFF;" d="M286.415,419.264c0.066,1.749,0.132,3.497,0.198,5.246c-6.978,0-13.956,0-20.935,0
					c0.1-1.749,0.2-3.497,0.3-5.246C272.79,419.264,279.603,419.264,286.415,419.264z"/>
				<path style="fill:#FFFFFF;" d="M310.027,419.264c0.085,1.749,0.169,3.497,0.254,5.246c-6.951,0-13.902,0-20.853,0
					c-0.068-1.749-0.137-3.497-0.204-5.246C296.158,419.264,303.093,419.264,310.027,419.264z"/>
				<path style="fill:#FFFFFF;" d="M333.435,419.264c0.103,1.749,0.207,3.497,0.311,5.246c-6.883,0-13.766,0-20.649,0
					c-0.087-1.749-0.174-3.497-0.261-5.246C319.702,419.264,326.569,419.264,333.435,419.264z"/>
				<path style="fill:#FFFFFF;" d="M357.251,419.264c0.258,1.749,0.517,3.497,0.776,5.246c-7.155,0-14.31,0-21.466,0
					c-0.106-1.749-0.212-3.497-0.317-5.246C343.247,419.264,350.249,419.264,357.251,419.264z"/>
				<path style="fill:#FFFFFF;" d="M381.026,419.264c0.277,1.749,0.555,3.497,0.833,5.246c-7.005,0-14.011,0-21.016,0
					c-0.261-1.749-0.522-3.497-0.783-5.246C367.049,419.264,374.038,419.264,381.026,419.264z"/>
				<path style="fill:#FFFFFF;" d="M404.964,419.264c0.296,1.749,0.593,3.497,0.89,5.246c-7.06,0-14.12,0-21.18,0
					c-0.28-1.749-0.56-3.497-0.839-5.246C390.878,419.264,397.921,419.264,404.964,419.264z"/>
				<path style="fill:#FFFFFF;" d="M428.698,419.264c0.329,1.749,0.658,3.497,0.988,5.246c-7.005,0-14.01,0-21.016,0
					c-0.313-1.749-0.626-3.497-0.938-5.246C414.721,419.264,421.71,419.264,428.698,419.264z"/>
				<path style="fill:#FFFFFF;" d="M452.188,419.264c0.348,1.749,0.696,3.497,1.044,5.246c-6.91,0-13.82,0-20.73,0
					c-0.332-1.749-0.664-3.497-0.995-5.246C438.401,419.264,445.294,419.264,452.188,419.264z"/>
				<path style="fill:#FFFFFF;" d="M476.452,419.264c0.367,1.749,0.734,3.497,1.102,5.246c-7.182,0-14.365,0-21.547,0
					c-0.337-1.749-0.674-3.497-1.01-5.246C462.149,419.264,469.3,419.264,476.452,419.264z"/>
				<path style="fill:#FFFFFF;" d="M505.875,424.511c-8.515,0-17.031,0-25.546,0c-0.357-1.749-0.713-3.497-1.068-5.246
					c8.142,0,16.284,0,24.426,0C504.415,421.013,505.144,422.762,505.875,424.511z"/>
			</g>
			<g>
				<path style="fill:#FFFFFF;" d="M174.395,412.625c6.683,0,13.367,0,20.05,0c-0.591,1.76-1.183,3.519-1.777,5.279
					c-6.632,0-13.263,0-19.895,0C173.315,416.145,173.855,414.385,174.395,412.625z"/>
				<path style="fill:#FFFFFF;" d="M197.286,412.625c7.238,0,14.476,0,21.714,0c-0.341,1.76-0.683,3.519-1.025,5.279
					c-7.486,0-14.972,0-22.458,0C196.108,416.145,196.698,414.385,197.286,412.625z"/>
				<path style="fill:#FFFFFF;" d="M221.801,412.625c6.913,0,13.826,0,20.74,0c-0.214,1.76-0.428,3.519-0.643,5.279
					c-7.039,0-14.077,0-21.116,0C221.122,416.145,221.462,414.385,221.801,412.625z"/>
				<path style="fill:#FFFFFF;" d="M245.3,412.625c7.306,0,14.611,0,21.917,0c-0.099,1.76-0.199,3.519-0.298,5.279
					c-7.405,0-14.809,0-22.214,0C244.904,416.145,245.102,414.385,245.3,412.625z"/>
				<path style="fill:#FFFFFF;" d="M290.068,412.625c0.068,1.76,0.136,3.519,0.204,5.279c-6.862,0-13.725,0-20.587,0
					c0.097-1.76,0.195-3.519,0.292-5.279C276.674,412.625,283.371,412.625,290.068,412.625z"/>
				<path style="fill:#FFFFFF;" d="M315.435,412.625c0.088,1.76,0.177,3.519,0.266,5.279c-7.54,0-15.081,0-22.621,0
					c-0.085-1.76-0.169-3.519-0.252-5.279C300.364,412.625,307.899,412.625,315.435,412.625z"/>
				<path style="fill:#FFFFFF;" d="M339.747,412.625c0.108,1.76,0.216,3.519,0.325,5.279c-7.188,0-14.375,0-21.563,0
					c-0.105-1.76-0.209-3.519-0.314-5.279C325.379,412.625,332.563,412.625,339.747,412.625z"/>
				<path style="fill:#FFFFFF;" d="M363.45,412.625c0.276,1.76,0.552,3.519,0.829,5.279c-7.147,0-14.294,0-21.441,0
					c-0.111-1.76-0.221-3.519-0.331-5.279C349.488,412.625,356.469,412.625,363.45,412.625z"/>
				<path style="fill:#FFFFFF;" d="M387.923,412.625c0.296,1.76,0.592,3.519,0.889,5.279c-7.242,0-14.484,0-21.726,0
					c-0.279-1.76-0.558-3.519-0.836-5.279C373.474,412.625,380.699,412.625,387.923,412.625z"/>
				<path style="fill:#FFFFFF;" d="M412.032,412.625c0.315,1.76,0.631,3.519,0.947,5.279c-7.12,0-14.24,0-21.359,0
					c-0.299-1.76-0.598-3.519-0.896-5.279C397.827,412.625,404.929,412.625,412.032,412.625z"/>
				<path style="fill:#FFFFFF;" d="M436.628,412.625c0.335,1.76,0.671,3.519,1.007,5.279c-7.283,0-14.565,0-21.848,0
					c-0.319-1.76-0.637-3.519-0.954-5.279C422.098,412.625,429.363,412.625,436.628,412.625z"/>
				<path style="fill:#FFFFFF;" d="M460.737,412.625c0.354,1.76,0.71,3.519,1.065,5.279c-7.12,0-14.24,0-21.36,0
					c-0.338-1.76-0.676-3.519-1.013-5.279C446.531,412.625,453.634,412.625,460.737,412.625z"/>
				<path style="fill:#FFFFFF;" d="M485.332,412.625c0.374,1.76,0.749,3.519,1.125,5.279c-7.283,0-14.565,0-21.848,0
					c-0.358-1.76-0.715-3.519-1.072-5.279C470.802,412.625,478.067,412.625,485.332,412.625z"/>
				<path style="fill:#FFFFFF;" d="M503.138,417.904c-4.625,0-9.249,0-13.874,0c-0.378-1.76-0.755-3.519-1.131-5.279
					c4.275,0,8.55,0,12.825,0C501.683,414.385,502.41,416.145,503.138,417.904z"/>
			</g>
		</g>
		<g>
			
				<rect x="151.661" y="462.753" style="fill:#EC644E;stroke:#263238;stroke-width:2.5;stroke-linecap:round;stroke-linejoin:round;stroke-miterlimit:10;" width="376.739" height="5.822"/>
		</g>
	</g>
</g>
<g id="Mouse">
	<g>
		<path style="fill:#EC644E;" d="M568.977,425.521c-6.023,6.278-1.711,21.549,1.711,28.637c3.422,7.088,8.432,14.665,36.052,14.665
			c27.619,0,31.041-7.821,30.674-17.109c-0.367-9.288-9.273-21.902-15.887-27.502C612.728,416.762,578.754,415.33,568.977,425.521z"
			/>
		<path style="fill:#FFFFFF;" d="M573.932,428.954c-6.031,6.284-1.72,21.554,1.709,28.643c1.125,2.337,2.437,4.741,4.675,6.891
			c-5.623-2.811-7.839-6.637-9.625-10.33c-3.429-7.089-7.74-22.359-1.709-28.632c9.768-10.198,43.747-8.765,52.545-1.312
			c0.485,0.408,0.981,0.86,1.488,1.334C610.943,420.024,582.696,419.815,573.932,428.954z"/>
		<path style="fill:none;stroke:#263238;stroke-width:2.5;stroke-linecap:round;stroke-linejoin:round;stroke-miterlimit:10;" d="
			M568.977,425.521c-6.023,6.278-1.711,21.549,1.711,28.637c3.422,7.088,8.432,14.665,36.052,14.665
			c27.619,0,31.041-7.821,30.674-17.109c-0.367-9.288-9.273-21.902-15.887-27.502C612.728,416.762,578.754,415.33,568.977,425.521z"
			/>
		<path style="fill:none;stroke:#263238;stroke-width:2.5;stroke-linecap:round;stroke-linejoin:round;stroke-miterlimit:10;" d="
			M565.965,434.727c8.145-4.655,36.864-9.206,57.05-3.044"/>
		
			<line style="fill:none;stroke:#263238;stroke-width:2.5;stroke-linecap:round;stroke-linejoin:round;stroke-miterlimit:10;" x1="590.482" y1="418.415" x2="595.611" y2="428.787"/>
		<path style="fill:none;stroke:#263238;stroke-width:2.5;stroke-linecap:round;stroke-linejoin:round;stroke-miterlimit:10;" d="
			M584.987,460.258c11.732,4.532,39.718,4.41,45.584-3.534"/>
	</g>
</g>
<g id="Plant">
	<g>
		<g>
			<path style="fill:#9ABAE3;" d="M106.614,262.674c0,0-11.511-0.489-21.836,5.104c-9.243,5.008-17.298,15.177-19.14,30.269
				C61.738,330,85.524,335.003,88.675,335.761c0,0,2.446,3.35,12.377,1.231c0,0,6.12,2.996,11.949,0.907
				c0,0,4.462,1.998,10.071-1.482c0,0,22.566-0.16,27.9-25.942c5.334-25.781-12.333-41.532-24.325-45.589
				C126.647,264.886,117.261,261.236,106.614,262.674z"/>
			<path style="fill:#FFFFFF;" d="M144.639,278.615c-4.494-4.722-9.738-7.892-14.179-9.39c0,0-9.096-3.531-19.395-2.14
				c0,0-11.142-0.468-21.135,4.949c-8.949,4.842-16.747,14.687-18.526,29.294c-2.541,20.827,7.063,29.816,14.54,33.695
				c-7.076-2.194-23.609-9.939-20.305-36.972c1.846-15.102,9.898-25.268,19.141-30.271c10.326-5.591,21.83-5.11,21.83-5.11
				c10.648-1.431,20.038,2.22,20.038,2.22C132.4,266.831,139.449,271.472,144.639,278.615z"/>
			<path style="fill:none;stroke:#263238;stroke-width:2.5;stroke-linecap:round;stroke-linejoin:round;stroke-miterlimit:10;" d="
				M106.614,262.674c0,0-11.511-0.489-21.836,5.104c-9.243,5.008-17.298,15.177-19.14,30.269
				C61.738,330,85.524,335.003,88.675,335.761c0,0,2.446,3.35,12.377,1.231c0,0,6.12,2.996,11.949,0.907
				c0,0,4.462,1.998,10.071-1.482c0,0,22.566-0.16,27.9-25.942c5.334-25.781-12.333-41.532-24.325-45.589
				C126.647,264.886,117.261,261.236,106.614,262.674z"/>
			<g style="opacity:0.2;">
				<path style="fill:#263238;" d="M105.268,266.135c0,0-7.003,13.42-8.467,35.582c-0.767,11.608-1.649,22.235,4.251,35.274
					c0,0-6.95-0.732-10.711-11.987c-4.489-13.43-2.549-34.941,2.943-45.63C98.777,268.686,105.268,266.135,105.268,266.135z"/>
				<path style="fill:#263238;" d="M88.127,333.416c0,0-9.748-10.676-8.715-30.386c0.927-17.701,6.174-30.877,21.014-38.044
					c0,0-16.982,1.39-24.007,23.299C68.127,314.143,80.009,328.071,88.127,333.416z"/>
				<path style="fill:#263238;" d="M110.493,266.712c0,0,10.905,12.768,10.894,38.492c-0.011,25.724-8.386,32.694-8.386,32.694
					s12.109-4.819,16.527-18.541c4.417-13.722-1.008-33.748-6.149-41.396C115.971,266.941,110.493,266.712,110.493,266.712z"/>
				<path style="fill:#263238;" d="M115.702,265.172c0,0,21.886,5.967,22.973,34.995c1.014,27.082-15.226,35.936-15.226,35.936
					s14.368-5.629,18.458-19.388c4.09-13.758,3.019-32.719-6.814-41.196C122.668,264.806,115.702,265.172,115.702,265.172z"/>
				<path style="fill:#263238;" d="M108.842,271.83c0,0-3.411,10.363-3.743,29.731c-0.285,16.597,1.075,29.593,4.27,34.2
					c0,0,4.424-14.409,4.725-27.201C114.353,297.487,113.481,281.828,108.842,271.83z"/>
			</g>
			
				<line style="fill:none;stroke:#263238;stroke-width:2.5;stroke-linecap:round;stroke-linejoin:round;stroke-miterlimit:10;" x1="120.824" y1="309.872" x2="121.605" y2="312.95"/>
			
				<line style="fill:none;stroke:#263238;stroke-width:2.5;stroke-linecap:round;stroke-linejoin:round;stroke-miterlimit:10;" x1="124.674" y1="302.305" x2="127.342" y2="304.027"/>
			
				<line style="fill:none;stroke:#263238;stroke-width:2.5;stroke-linecap:round;stroke-linejoin:round;stroke-miterlimit:10;" x1="148.523" y1="313.554" x2="151.191" y2="315.276"/>
			
				<line style="fill:none;stroke:#263238;stroke-width:2.5;stroke-linecap:round;stroke-linejoin:round;stroke-miterlimit:10;" x1="95.182" y1="279.337" x2="92.325" y2="277.952"/>
			
				<line style="fill:none;stroke:#263238;stroke-width:2.5;stroke-linecap:round;stroke-linejoin:round;stroke-miterlimit:10;" x1="63.249" y1="291.898" x2="66.368" y2="292.491"/>
			
				<line style="fill:none;stroke:#263238;stroke-width:2.5;stroke-linecap:round;stroke-linejoin:round;stroke-miterlimit:10;" x1="136.97" y1="269.53" x2="139.654" y2="267.832"/>
			
				<line style="fill:none;stroke:#263238;stroke-width:2.5;stroke-linecap:round;stroke-linejoin:round;stroke-miterlimit:10;" x1="80.058" y1="318.123" x2="82.742" y2="316.425"/>
		</g>
		
			<path style="fill:#FFFFFF;stroke:#263238;stroke-width:2.5;stroke-linecap:round;stroke-linejoin:round;stroke-miterlimit:10;" d="
			M129.377,387.317H85.661c-4.882,0-8.955-3.729-9.385-8.592l-4.145-46.892h70.775l-4.145,46.892
			C138.332,383.588,134.259,387.317,129.377,387.317z"/>
		<g>
			<polygon style="fill:#EC644E;" points="75.47,350.653 85.946,350.653 80.709,359.941 			"/>
			<polygon style="fill:#EC644E;" points="92.649,364.585 82.173,364.585 87.411,355.297 			"/>
			<polygon style="fill:#EC644E;" points="106.108,364.585 95.632,364.585 100.87,355.297 			"/>
			<polygon style="fill:#EC644E;" points="119.567,364.585 109.091,364.585 114.329,355.297 			"/>
			<polygon style="fill:#EC644E;" points="133.026,364.585 122.551,364.585 127.789,355.297 			"/>
			<polygon style="fill:#EC644E;" points="88.876,350.653 99.352,350.653 94.114,359.941 			"/>
			<polygon style="fill:#EC644E;" points="102.281,350.653 112.757,350.653 107.519,359.941 			"/>
			<polygon style="fill:#EC644E;" points="115.686,350.653 126.162,350.653 120.924,359.941 			"/>
			<polygon style="fill:#EC644E;" points="129.091,350.653 139.567,350.653 134.329,359.941 			"/>
		</g>
	</g>
</g>
</svg>
